<svg height="auto" viewBox="0 0 400 400" xmlns="http://www.w3.org/2000/svg"><path d="M0 396.166c1.36-.67 14.28-6.795 17-8.382 2.72-1.587 14.28-8.755 17-11.45 2.72-2.697 14.28-20.769 17-22.246 2.72-1.477 14.28 4.617 17 3.78 2.72-.835 14.28-11.926 17-14.23 2.72-2.303 14.28-9.562 17-14.563 2.72-5.001 14.28-43.44 17-47.954 2.72-4.513 14.28-7.98 17-8.467 2.72-.487 14.28.395 17 2.38 2.72 1.984 14.28 21.2 17 22.427 2.72 1.227 14.28-1.634 17-7.086 2.72-5.452 14.28-56.693 17-61.066 2.72-4.374 14.28 9.645 17 6.397 2.72-3.247 14.28-49.91 17-46.994 2.72 2.916 14.28 82.163 17 83.44 2.72 1.278 14.28-58.158 17-67.47 2.72-9.312 14.28-44.211 17-48.929 2.72-4.717 14.28-14.204 17-10.039 2.72 4.165 14.28 64.1 17 62.098 2.72-2.001 14.28-83.365 17-87.117 2.72-3.752 14.28 39.229 17 40.214 2.72.985 14.28-20.464 17-27.904 2.72-7.44 14.28-56.802 17-65.091 2.72-8.29 15.64-35.441 17-38.523L400 400H0Z" fill="#444cf71a"/><path d="M0 396.166c1.36-.67 14.28-6.795 17-8.382 2.72-1.587 14.28-8.755 17-11.45 2.72-2.697 14.28-20.769 17-22.246 2.72-1.477 14.28 4.617 17 3.78 2.72-.835 14.28-11.926 17-14.23 2.72-2.303 14.28-9.562 17-14.563 2.72-5.001 14.28-43.44 17-47.954 2.72-4.513 14.28-7.98 17-8.467 2.72-.487 14.28.395 17 2.38 2.72 1.984 14.28 21.2 17 22.427 2.72 1.227 14.28-1.634 17-7.086 2.72-5.452 14.28-56.693 17-61.066 2.72-4.374 14.28 9.645 17 6.397 2.72-3.247 14.28-49.91 17-46.994 2.72 2.916 14.28 82.163 17 83.44 2.72 1.278 14.28-58.158 17-67.47 2.72-9.312 14.28-44.211 17-48.929 2.72-4.717 14.28-14.204 17-10.039 2.72 4.165 14.28 64.1 17 62.098 2.72-2.001 14.28-83.365 17-87.117 2.72-3.752 14.28 39.229 17 40.214 2.72.985 14.28-20.464 17-27.904 2.72-7.44 14.28-56.802 17-65.091 2.72-8.29 15.64-35.441 17-38.523" fill="none" stroke="#444cf7" stroke-width="2"/></svg>